<svg height="7214" width="720" xmlns="http://www.w3.org/2000/svg">
<rect height="7214" fill="#555" width="720"></rect>
<text fill="#7f7" font-family="Courier New" font-size="12" xml:space="preserve">
<tspan x="10" y="26">40 megabytes installed</tspan>
<tspan x="10" y="42"></tspan>
<tspan x="10" y="58">node_modules</tspan>
<tspan x="10" y="74">├─┬ generator-backbone@0.4.2 </tspan>
<tspan x="10" y="90">│ ├── ejs@2.5.6 </tspan>
<tspan x="10" y="106">│ ├─┬ html-wiring@1.2.0 </tspan>
<tspan x="10" y="122">│ │ ├─┬ cheerio@0.19.0 </tspan>
<tspan x="10" y="138">│ │ │ ├─┬ css-select@1.0.0 </tspan>
<tspan x="10" y="154">│ │ │ │ ├── boolbase@1.0.0 </tspan>
<tspan x="10" y="170">│ │ │ │ ├── css-what@1.0.0 </tspan>
<tspan x="10" y="186">│ │ │ │ ├── domutils@1.4.3 </tspan>
<tspan x="10" y="202">│ │ │ │ └── nth-check@1.0.1 </tspan>
<tspan x="10" y="218">│ │ │ ├─┬ dom-serializer@0.1.0 </tspan>
<tspan x="10" y="234">│ │ │ │ └── domelementtype@1.1.3 </tspan>
<tspan x="10" y="250">│ │ │ ├── entities@1.1.1 </tspan>
<tspan x="10" y="266">│ │ │ └─┬ htmlparser2@3.8.3 </tspan>
<tspan x="10" y="282">│ │ │   ├── domelementtype@1.3.0 </tspan>
<tspan x="10" y="298">│ │ │   ├── domhandler@2.3.0 </tspan>
<tspan x="10" y="314">│ │ │   ├── domutils@1.5.1 </tspan>
<tspan x="10" y="330">│ │ │   ├── entities@1.0.0 </tspan>
<tspan x="10" y="346">│ │ │   └─┬ readable-stream@1.1.14 </tspan>
<tspan x="10" y="362">│ │ │     ├── isarray@0.0.1 </tspan>
<tspan x="10" y="378">│ │ │     └── string_decoder@0.10.31 </tspan>
<tspan x="10" y="394">│ │ └─┬ detect-newline@1.0.3 </tspan>
<tspan x="10" y="410">│ │   ├── get-stdin@4.0.1 </tspan>
<tspan x="10" y="426">│ │   └── minimist@1.2.0 </tspan>
<tspan x="10" y="442">│ ├─┬ mkdirp@0.5.1 </tspan>
<tspan x="10" y="458">│ │ └── minimist@0.0.8 </tspan>
<tspan x="10" y="474">│ ├─┬ param-case@1.1.2 </tspan>
<tspan x="10" y="490">│ │ └─┬ sentence-case@1.1.3 </tspan>
<tspan x="10" y="506">│ │   └── lower-case@1.1.4 </tspan>
<tspan x="10" y="522">│ ├─┬ pascal-case@1.1.2 </tspan>
<tspan x="10" y="538">│ │ ├─┬ camel-case@1.2.2 </tspan>
<tspan x="10" y="554">│ │ │ └── upper-case@1.1.3 </tspan>
<tspan x="10" y="570">│ │ └── upper-case-first@1.1.2 </tspan>
<tspan x="10" y="586">│ └─┬ yeoman-generator@0.21.2 </tspan>
<tspan x="10" y="602">│   ├── async@1.5.2 </tspan>
<tspan x="10" y="618">│   ├─┬ chalk@1.1.3 </tspan>
<tspan x="10" y="634">│   │ ├── ansi-styles@2.2.1 </tspan>
<tspan x="10" y="650">│   │ ├── escape-string-regexp@1.0.5 </tspan>
<tspan x="10" y="666">│   │ ├── has-ansi@2.0.0 </tspan>
<tspan x="10" y="682">│   │ ├── strip-ansi@3.0.1 </tspan>
<tspan x="10" y="698">│   │ └── supports-color@2.0.0 </tspan>
<tspan x="10" y="714">│   ├─┬ class-extend@0.1.2 </tspan>
<tspan x="10" y="730">│   │ └── object-assign@2.1.1 </tspan>
<tspan x="10" y="746">│   ├─┬ cli-table@0.3.1 </tspan>
<tspan x="10" y="762">│   │ └── colors@1.0.3 </tspan>
<tspan x="10" y="778">│   ├─┬ cross-spawn@2.2.3 </tspan>
<tspan x="10" y="794">│   │ ├─┬ cross-spawn-async@2.2.5 </tspan>
<tspan x="10" y="810">│   │ │ ├─┬ lru-cache@4.0.2 </tspan>
<tspan x="10" y="826">│   │ │ │ ├── pseudomap@1.0.2 </tspan>
<tspan x="10" y="842">│   │ │ │ └── yallist@2.1.2 </tspan>
<tspan x="10" y="858">│   │ │ └─┬ which@1.2.14 </tspan>
<tspan x="10" y="874">│   │ │   └── isexe@2.0.0 </tspan>
<tspan x="10" y="890">│   │ └─┬ spawn-sync@1.0.15 </tspan>
<tspan x="10" y="906">│   │   └── os-shim@0.1.3 </tspan>
<tspan x="10" y="922">│   ├─┬ dargs@4.1.0 </tspan>
<tspan x="10" y="938">│   │ └── number-is-nan@1.0.1 </tspan>
<tspan x="10" y="954">│   ├─┬ dateformat@1.0.12 </tspan>
<tspan x="10" y="970">│   │ └─┬ meow@3.7.0 </tspan>
<tspan x="10" y="986">│   │   ├─┬ camelcase-keys@2.1.0 </tspan>
<tspan x="10" y="1002">│   │   │ └── camelcase@2.1.1 </tspan>
<tspan x="10" y="1018">│   │   ├── decamelize@1.2.0 </tspan>
<tspan x="10" y="1034">│   │   ├─┬ loud-rejection@1.6.0 </tspan>
<tspan x="10" y="1050">│   │   │ ├─┬ currently-unhandled@0.4.1 </tspan>
<tspan x="10" y="1066">│   │   │ │ └── array-find-index@1.0.2 </tspan>
<tspan x="10" y="1082">│   │   │ └── signal-exit@3.0.2 </tspan>
<tspan x="10" y="1098">│   │   ├── map-obj@1.0.1 </tspan>
<tspan x="10" y="1114">│   │   ├─┬ normalize-package-data@2.3.8 </tspan>
<tspan x="10" y="1130">│   │   │ ├── hosted-git-info@2.4.2 </tspan>
<tspan x="10" y="1146">│   │   │ ├─┬ is-builtin-module@1.0.0 </tspan>
<tspan x="10" y="1162">│   │   │ │ └── builtin-modules@1.1.1 </tspan>
<tspan x="10" y="1178">│   │   │ ├── semver@5.3.0 </tspan>
<tspan x="10" y="1194">│   │   │ └─┬ validate-npm-package-license@3.0.1 </tspan>
<tspan x="10" y="1210">│   │   │   ├─┬ spdx-correct@1.0.2 </tspan>
<tspan x="10" y="1226">│   │   │   │ └── spdx-license-ids@1.2.2 </tspan>
<tspan x="10" y="1242">│   │   │   └── spdx-expression-parse@1.0.4 </tspan>
<tspan x="10" y="1258">│   │   ├── object-assign@4.1.1 </tspan>
<tspan x="10" y="1274">│   │   ├─┬ redent@1.0.0 </tspan>
<tspan x="10" y="1290">│   │   │ ├─┬ indent-string@2.1.0 </tspan>
<tspan x="10" y="1306">│   │   │ │ └─┬ repeating@2.0.1 </tspan>
<tspan x="10" y="1322">│   │   │ │   └── is-finite@1.0.2 </tspan>
<tspan x="10" y="1338">│   │   │ └── strip-indent@1.0.1 </tspan>
<tspan x="10" y="1354">│   │   └── trim-newlines@1.0.0 </tspan>
<tspan x="10" y="1370">│   ├─┬ debug@2.6.4 </tspan>
<tspan x="10" y="1386">│   │ └── ms@0.7.3 </tspan>
<tspan x="10" y="1402">│   ├── detect-conflict@1.0.1 </tspan>
<tspan x="10" y="1418">│   ├─┬ download@4.4.3 </tspan>
<tspan x="10" y="1434">│   │ ├─┬ caw@1.2.0 </tspan>
<tspan x="10" y="1450">│   │ │ ├─┬ get-proxy@1.1.0 </tspan>
<tspan x="10" y="1466">│   │ │ │ └─┬ rc@1.2.1 </tspan>
<tspan x="10" y="1482">│   │ │ │   ├── ini@1.3.4 </tspan>
<tspan x="10" y="1498">│   │ │ │   └── strip-json-comments@2.0.1 </tspan>
<tspan x="10" y="1514">│   │ │ ├── is-obj@1.0.1 </tspan>
<tspan x="10" y="1530">│   │ │ ├── object-assign@3.0.0 </tspan>
<tspan x="10" y="1546">│   │ │ └── tunnel-agent@0.4.3 </tspan>
<tspan x="10" y="1562">│   │ ├─┬ concat-stream@1.6.0 </tspan>
<tspan x="10" y="1578">│   │ │ ├─┬ readable-stream@2.2.9 </tspan>
<tspan x="10" y="1594">│   │ │ │ ├── isarray@1.0.0 </tspan>
<tspan x="10" y="1610">│   │ │ │ └── string_decoder@1.0.0 </tspan>
<tspan x="10" y="1626">│   │ │ └── typedarray@0.0.6 </tspan>
<tspan x="10" y="1642">│   │ ├─┬ each-async@1.1.1 </tspan>
<tspan x="10" y="1658">│   │ │ ├── onetime@1.1.0 </tspan>
<tspan x="10" y="1674">│   │ │ └── set-immediate-shim@1.0.1 </tspan>
<tspan x="10" y="1690">│   │ ├─┬ filenamify@1.2.1 </tspan>
<tspan x="10" y="1706">│   │ │ ├── filename-reserved-regex@1.0.0 </tspan>
<tspan x="10" y="1722">│   │ │ ├── strip-outer@1.0.0 </tspan>
<tspan x="10" y="1738">│   │ │ └── trim-repeated@1.0.0 </tspan>
<tspan x="10" y="1754">│   │ ├─┬ got@5.7.1 </tspan>
<tspan x="10" y="1770">│   │ │ ├─┬ create-error-class@3.0.2 </tspan>
<tspan x="10" y="1786">│   │ │ │ └── capture-stack-trace@1.0.0 </tspan>
<tspan x="10" y="1802">│   │ │ ├─┬ duplexer2@0.1.4 </tspan>
<tspan x="10" y="1818">│   │ │ │ └─┬ readable-stream@2.2.9 </tspan>
<tspan x="10" y="1834">│   │ │ │   ├── isarray@1.0.0 </tspan>
<tspan x="10" y="1850">│   │ │ │   └── string_decoder@1.0.0 </tspan>
<tspan x="10" y="1866">│   │ │ ├── is-redirect@1.0.0 </tspan>
<tspan x="10" y="1882">│   │ │ ├── is-retry-allowed@1.1.0 </tspan>
<tspan x="10" y="1898">│   │ │ ├── is-stream@1.1.0 </tspan>
<tspan x="10" y="1914">│   │ │ ├── lowercase-keys@1.0.0 </tspan>
<tspan x="10" y="1930">│   │ │ ├── node-status-codes@1.0.0 </tspan>
<tspan x="10" y="1946">│   │ │ ├── object-assign@4.1.1 </tspan>
<tspan x="10" y="1962">│   │ │ ├─┬ parse-json@2.2.0 </tspan>
<tspan x="10" y="1978">│   │ │ │ └─┬ error-ex@1.3.1 </tspan>
<tspan x="10" y="1994">│   │ │ │   └── is-arrayish@0.2.1 </tspan>
<tspan x="10" y="2010">│   │ │ ├─┬ readable-stream@2.2.9 </tspan>
<tspan x="10" y="2026">│   │ │ │ ├── isarray@1.0.0 </tspan>
<tspan x="10" y="2042">│   │ │ │ └── string_decoder@1.0.0 </tspan>
<tspan x="10" y="2058">│   │ │ ├── timed-out@3.1.3 </tspan>
<tspan x="10" y="2074">│   │ │ ├── unzip-response@1.0.2 </tspan>
<tspan x="10" y="2090">│   │ │ └─┬ url-parse-lax@1.0.0 </tspan>
<tspan x="10" y="2106">│   │ │   └── prepend-http@1.0.4 </tspan>
<tspan x="10" y="2122">│   │ ├─┬ gulp-decompress@1.2.0 </tspan>
<tspan x="10" y="2138">│   │ │ ├─┬ archive-type@3.2.0 </tspan>
<tspan x="10" y="2154">│   │ │ │ └── file-type@3.9.0 </tspan>
<tspan x="10" y="2170">│   │ │ ├─┬ decompress@3.0.0 </tspan>
<tspan x="10" y="2186">│   │ │ │ ├─┬ buffer-to-vinyl@1.1.0 </tspan>
<tspan x="10" y="2202">│   │ │ │ │ ├─┬ readable-stream@2.2.9 </tspan>
<tspan x="10" y="2218">│   │ │ │ │ │ ├── isarray@1.0.0 </tspan>
<tspan x="10" y="2234">│   │ │ │ │ │ └── string_decoder@1.0.0 </tspan>
<tspan x="10" y="2250">│   │ │ │ │ └── uuid@2.0.3 </tspan>
<tspan x="10" y="2266">│   │ │ │ ├─┬ decompress-tar@3.1.0 </tspan>
<tspan x="10" y="2282">│   │ │ │ │ ├── is-tar@1.0.0 </tspan>
<tspan x="10" y="2298">│   │ │ │ │ ├─┬ strip-dirs@1.1.1 </tspan>
<tspan x="10" y="2314">│   │ │ │ │ │ ├─┬ is-absolute@0.1.7 </tspan>
<tspan x="10" y="2330">│   │ │ │ │ │ │ └── is-relative@0.1.3 </tspan>
<tspan x="10" y="2346">│   │ │ │ │ │ ├── is-natural-number@2.1.1 </tspan>
<tspan x="10" y="2362">│   │ │ │ │ │ └── sum-up@1.0.3 </tspan>
<tspan x="10" y="2378">│   │ │ │ │ ├─┬ tar-stream@1.5.2 </tspan>
<tspan x="10" y="2394">│   │ │ │ │ │ ├─┬ bl@1.2.0 </tspan>
<tspan x="10" y="2410">│   │ │ │ │ │ │ └─┬ readable-stream@2.2.9 </tspan>
<tspan x="10" y="2426">│   │ │ │ │ │ │   ├── isarray@1.0.0 </tspan>
<tspan x="10" y="2442">│   │ │ │ │ │ │   └── string_decoder@1.0.0 </tspan>
<tspan x="10" y="2458">│   │ │ │ │ │ ├── end-of-stream@1.4.0 </tspan>
<tspan x="10" y="2474">│   │ │ │ │ │ └─┬ readable-stream@2.2.9 </tspan>
<tspan x="10" y="2490">│   │ │ │ │ │   ├── isarray@1.0.0 </tspan>
<tspan x="10" y="2506">│   │ │ │ │ │   └── string_decoder@1.0.0 </tspan>
<tspan x="10" y="2522">│   │ │ │ │ ├─┬ through2@0.6.5 </tspan>
<tspan x="10" y="2538">│   │ │ │ │ │ └── readable-stream@1.0.34 </tspan>
<tspan x="10" y="2554">│   │ │ │ │ └─┬ vinyl@0.4.6 </tspan>
<tspan x="10" y="2570">│   │ │ │ │   └── clone@0.2.0 </tspan>
<tspan x="10" y="2586">│   │ │ │ ├─┬ decompress-tarbz2@3.1.0 </tspan>
<tspan x="10" y="2602">│   │ │ │ │ ├── is-bzip2@1.0.0 </tspan>
<tspan x="10" y="2618">│   │ │ │ │ ├─┬ seek-bzip@1.0.5 </tspan>
<tspan x="10" y="2634">│   │ │ │ │ │ └─┬ commander@2.8.1 </tspan>
<tspan x="10" y="2650">│   │ │ │ │ │   └── graceful-readlink@1.0.1 </tspan>
<tspan x="10" y="2666">│   │ │ │ │ ├─┬ through2@0.6.5 </tspan>
<tspan x="10" y="2682">│   │ │ │ │ │ └── readable-stream@1.0.34 </tspan>
<tspan x="10" y="2698">│   │ │ │ │ └─┬ vinyl@0.4.6 </tspan>
<tspan x="10" y="2714">│   │ │ │ │   └── clone@0.2.0 </tspan>
<tspan x="10" y="2730">│   │ │ │ ├─┬ decompress-targz@3.1.0 </tspan>
<tspan x="10" y="2746">│   │ │ │ │ ├── is-gzip@1.0.0 </tspan>
<tspan x="10" y="2762">│   │ │ │ │ ├─┬ through2@0.6.5 </tspan>
<tspan x="10" y="2778">│   │ │ │ │ │ └── readable-stream@1.0.34 </tspan>
<tspan x="10" y="2794">│   │ │ │ │ └─┬ vinyl@0.4.6 </tspan>
<tspan x="10" y="2810">│   │ │ │ │   └── clone@0.2.0 </tspan>
<tspan x="10" y="2826">│   │ │ │ ├─┬ decompress-unzip@3.4.0 </tspan>
<tspan x="10" y="2842">│   │ │ │ │ ├── is-zip@1.0.0 </tspan>
<tspan x="10" y="2858">│   │ │ │ │ ├── stat-mode@0.2.2 </tspan>
<tspan x="10" y="2874">│   │ │ │ │ └─┬ yauzl@2.8.0 </tspan>
<tspan x="10" y="2890">│   │ │ │ │   ├── buffer-crc32@0.2.13 </tspan>
<tspan x="10" y="2906">│   │ │ │ │   └─┬ fd-slicer@1.0.1 </tspan>
<tspan x="10" y="2922">│   │ │ │ │     └── pend@1.2.0 </tspan>
<tspan x="10" y="2938">│   │ │ │ └─┬ vinyl-assign@1.2.1 </tspan>
<tspan x="10" y="2954">│   │ │ │   ├── object-assign@4.1.1 </tspan>
<tspan x="10" y="2970">│   │ │ │   └─┬ readable-stream@2.2.9 </tspan>
<tspan x="10" y="2986">│   │ │ │     ├── isarray@1.0.0 </tspan>
<tspan x="10" y="3002">│   │ │ │     └── string_decoder@1.0.0 </tspan>
<tspan x="10" y="3018">│   │ │ ├─┬ gulp-util@3.0.8 </tspan>
<tspan x="10" y="3034">│   │ │ │ ├── array-uniq@1.0.3 </tspan>
<tspan x="10" y="3050">│   │ │ │ ├── beeper@1.1.1 </tspan>
<tspan x="10" y="3066">│   │ │ │ ├── dateformat@2.0.0 </tspan>
<tspan x="10" y="3082">│   │ │ │ ├─┬ fancy-log@1.3.0 </tspan>
<tspan x="10" y="3098">│   │ │ │ │ └── time-stamp@1.0.1 </tspan>
<tspan x="10" y="3114">│   │ │ │ ├─┬ gulplog@1.0.0 </tspan>
<tspan x="10" y="3130">│   │ │ │ │ └── glogg@1.0.0 </tspan>
<tspan x="10" y="3146">│   │ │ │ ├─┬ has-gulplog@0.1.0 </tspan>
<tspan x="10" y="3162">│   │ │ │ │ └── sparkles@1.0.0 </tspan>
<tspan x="10" y="3178">│   │ │ │ ├── lodash._reescape@3.0.0 </tspan>
<tspan x="10" y="3194">│   │ │ │ ├── lodash._reevaluate@3.0.0 </tspan>
<tspan x="10" y="3210">│   │ │ │ ├── lodash._reinterpolate@3.0.0 </tspan>
<tspan x="10" y="3226">│   │ │ │ ├─┬ lodash.template@3.6.2 </tspan>
<tspan x="10" y="3242">│   │ │ │ │ ├── lodash._basecopy@3.0.1 </tspan>
<tspan x="10" y="3258">│   │ │ │ │ ├── lodash._basetostring@3.0.1 </tspan>
<tspan x="10" y="3274">│   │ │ │ │ ├── lodash._basevalues@3.0.0 </tspan>
<tspan x="10" y="3290">│   │ │ │ │ ├── lodash._isiterateecall@3.0.9 </tspan>
<tspan x="10" y="3306">│   │ │ │ │ ├─┬ lodash.escape@3.2.0 </tspan>
<tspan x="10" y="3322">│   │ │ │ │ │ └── lodash._root@3.0.1 </tspan>
<tspan x="10" y="3338">│   │ │ │ │ ├─┬ lodash.keys@3.1.2 </tspan>
<tspan x="10" y="3354">│   │ │ │ │ │ ├── lodash._getnative@3.9.1 </tspan>
<tspan x="10" y="3370">│   │ │ │ │ │ ├── lodash.isarguments@3.1.0 </tspan>
<tspan x="10" y="3386">│   │ │ │ │ │ └── lodash.isarray@3.0.4 </tspan>
<tspan x="10" y="3402">│   │ │ │ │ ├── lodash.restparam@3.6.1 </tspan>
<tspan x="10" y="3418">│   │ │ │ │ └── lodash.templatesettings@3.1.1 </tspan>
<tspan x="10" y="3434">│   │ │ │ ├─┬ multipipe@0.1.2 </tspan>
<tspan x="10" y="3450">│   │ │ │ │ └── duplexer2@0.0.2 </tspan>
<tspan x="10" y="3466">│   │ │ │ ├── object-assign@3.0.0 </tspan>
<tspan x="10" y="3482">│   │ │ │ └── vinyl@0.5.3 </tspan>
<tspan x="10" y="3498">│   │ │ └─┬ readable-stream@2.2.9 </tspan>
<tspan x="10" y="3514">│   │ │   ├── isarray@1.0.0 </tspan>
<tspan x="10" y="3530">│   │ │   └── string_decoder@1.0.0 </tspan>
<tspan x="10" y="3546">│   │ ├── gulp-rename@1.2.2 </tspan>
<tspan x="10" y="3562">│   │ ├── is-url@1.2.2 </tspan>
<tspan x="10" y="3578">│   │ ├── object-assign@4.1.1 </tspan>
<tspan x="10" y="3594">│   │ ├─┬ read-all-stream@3.1.0 </tspan>
<tspan x="10" y="3610">│   │ │ └─┬ readable-stream@2.2.9 </tspan>
<tspan x="10" y="3626">│   │ │   ├── isarray@1.0.0 </tspan>
<tspan x="10" y="3642">│   │ │   └── string_decoder@1.0.0 </tspan>
<tspan x="10" y="3658">│   │ ├─┬ readable-stream@2.2.9 </tspan>
<tspan x="10" y="3674">│   │ │ ├── buffer-shims@1.0.0 </tspan>
<tspan x="10" y="3690">│   │ │ ├── core-util-is@1.0.2 </tspan>
<tspan x="10" y="3706">│   │ │ ├── isarray@1.0.0 </tspan>
<tspan x="10" y="3722">│   │ │ ├── process-nextick-args@1.0.7 </tspan>
<tspan x="10" y="3738">│   │ │ └── string_decoder@1.0.0 </tspan>
<tspan x="10" y="3754">│   │ ├─┬ stream-combiner2@1.1.1 </tspan>
<tspan x="10" y="3770">│   │ │ └─┬ readable-stream@2.2.9 </tspan>
<tspan x="10" y="3786">│   │ │   ├── isarray@1.0.0 </tspan>
<tspan x="10" y="3802">│   │ │   └── string_decoder@1.0.0 </tspan>
<tspan x="10" y="3818">│   │ ├─┬ vinyl@1.2.0 </tspan>
<tspan x="10" y="3834">│   │ │ ├── clone@1.0.2 </tspan>
<tspan x="10" y="3850">│   │ │ ├── clone-stats@0.0.1 </tspan>
<tspan x="10" y="3866">│   │ │ └── replace-ext@0.0.1 </tspan>
<tspan x="10" y="3882">│   │ ├─┬ vinyl-fs@2.4.4 </tspan>
<tspan x="10" y="3898">│   │ │ ├─┬ duplexify@3.5.0 </tspan>
<tspan x="10" y="3914">│   │ │ │ ├─┬ end-of-stream@1.0.0 </tspan>
<tspan x="10" y="3930">│   │ │ │ │ └── once@1.3.3 </tspan>
<tspan x="10" y="3946">│   │ │ │ ├─┬ readable-stream@2.2.9 </tspan>
<tspan x="10" y="3962">│   │ │ │ │ ├── isarray@1.0.0 </tspan>
<tspan x="10" y="3978">│   │ │ │ │ └── string_decoder@1.0.0 </tspan>
<tspan x="10" y="3994">│   │ │ │ └── stream-shift@1.0.0 </tspan>
<tspan x="10" y="4010">│   │ │ ├─┬ glob-stream@5.3.5 </tspan>
<tspan x="10" y="4026">│   │ │ │ ├── extend@3.0.0 </tspan>
<tspan x="10" y="4042">│   │ │ │ ├─┬ glob-parent@3.1.0 </tspan>
<tspan x="10" y="4058">│   │ │ │ │ ├─┬ is-glob@3.1.0 </tspan>
<tspan x="10" y="4074">│   │ │ │ │ │ └── is-extglob@2.1.1 </tspan>
<tspan x="10" y="4090">│   │ │ │ │ └── path-dirname@1.0.2 </tspan>
<tspan x="10" y="4106">│   │ │ │ ├─┬ micromatch@2.3.11 </tspan>
<tspan x="10" y="4122">│   │ │ │ │ ├─┬ arr-diff@2.0.0 </tspan>
<tspan x="10" y="4138">│   │ │ │ │ │ └── arr-flatten@1.0.3 </tspan>
<tspan x="10" y="4154">│   │ │ │ │ ├── array-unique@0.2.1 </tspan>
<tspan x="10" y="4170">│   │ │ │ │ ├─┬ braces@1.8.5 </tspan>
<tspan x="10" y="4186">│   │ │ │ │ │ ├─┬ expand-range@1.8.2 </tspan>
<tspan x="10" y="4202">│   │ │ │ │ │ │ └─┬ fill-range@2.2.3 </tspan>
<tspan x="10" y="4218">│   │ │ │ │ │ │   ├── is-number@2.1.0 </tspan>
<tspan x="10" y="4234">│   │ │ │ │ │ │   ├─┬ isobject@2.1.0 </tspan>
<tspan x="10" y="4250">│   │ │ │ │ │ │   │ └── isarray@1.0.0 </tspan>
<tspan x="10" y="4266">│   │ │ │ │ │ │   ├── randomatic@1.1.6 </tspan>
<tspan x="10" y="4282">│   │ │ │ │ │ │   └── repeat-string@1.6.1 </tspan>
<tspan x="10" y="4298">│   │ │ │ │ │ ├── preserve@0.2.0 </tspan>
<tspan x="10" y="4314">│   │ │ │ │ │ └── repeat-element@1.1.2 </tspan>
<tspan x="10" y="4330">│   │ │ │ │ ├─┬ expand-brackets@0.1.5 </tspan>
<tspan x="10" y="4346">│   │ │ │ │ │ └── is-posix-bracket@0.1.1 </tspan>
<tspan x="10" y="4362">│   │ │ │ │ ├─┬ extglob@0.3.2 </tspan>
<tspan x="10" y="4378">│   │ │ │ │ │ └── is-extglob@1.0.0 </tspan>
<tspan x="10" y="4394">│   │ │ │ │ ├── filename-regex@2.0.0 </tspan>
<tspan x="10" y="4410">│   │ │ │ │ ├── is-extglob@1.0.0 </tspan>
<tspan x="10" y="4426">│   │ │ │ │ ├── is-glob@2.0.1 </tspan>
<tspan x="10" y="4442">│   │ │ │ │ ├─┬ kind-of@3.1.0 </tspan>
<tspan x="10" y="4458">│   │ │ │ │ │ └── is-buffer@1.1.5 </tspan>
<tspan x="10" y="4474">│   │ │ │ │ ├─┬ normalize-path@2.1.1 </tspan>
<tspan x="10" y="4490">│   │ │ │ │ │ └── remove-trailing-separator@1.0.1 </tspan>
<tspan x="10" y="4506">│   │ │ │ │ ├─┬ object.omit@2.0.1 </tspan>
<tspan x="10" y="4522">│   │ │ │ │ │ ├─┬ for-own@0.1.5 </tspan>
<tspan x="10" y="4538">│   │ │ │ │ │ │ └── for-in@1.0.2 </tspan>
<tspan x="10" y="4554">│   │ │ │ │ │ └── is-extendable@0.1.1 </tspan>
<tspan x="10" y="4570">│   │ │ │ │ ├─┬ parse-glob@3.0.4 </tspan>
<tspan x="10" y="4586">│   │ │ │ │ │ ├─┬ glob-base@0.3.0 </tspan>
<tspan x="10" y="4602">│   │ │ │ │ │ │ ├── glob-parent@2.0.0 </tspan>
<tspan x="10" y="4618">│   │ │ │ │ │ │ └─┬ is-glob@2.0.1 </tspan>
<tspan x="10" y="4634">│   │ │ │ │ │ │   └── is-extglob@1.0.0 </tspan>
<tspan x="10" y="4650">│   │ │ │ │ │ ├── is-dotfile@1.0.2 </tspan>
<tspan x="10" y="4666">│   │ │ │ │ │ ├── is-extglob@1.0.0 </tspan>
<tspan x="10" y="4682">│   │ │ │ │ │ └── is-glob@2.0.1 </tspan>
<tspan x="10" y="4698">│   │ │ │ │ └─┬ regex-cache@0.4.3 </tspan>
<tspan x="10" y="4714">│   │ │ │ │   ├── is-equal-shallow@0.1.3 </tspan>
<tspan x="10" y="4730">│   │ │ │ │   └── is-primitive@2.0.0 </tspan>
<tspan x="10" y="4746">│   │ │ │ ├─┬ ordered-read-streams@0.3.0 </tspan>
<tspan x="10" y="4762">│   │ │ │ │ └─┬ readable-stream@2.2.9 </tspan>
<tspan x="10" y="4778">│   │ │ │ │   ├── isarray@1.0.0 </tspan>
<tspan x="10" y="4794">│   │ │ │ │   └── string_decoder@1.0.0 </tspan>
<tspan x="10" y="4810">│   │ │ │ ├─┬ through2@0.6.5 </tspan>
<tspan x="10" y="4826">│   │ │ │ │ └── readable-stream@1.0.34 </tspan>
<tspan x="10" y="4842">│   │ │ │ ├─┬ to-absolute-glob@0.1.1 </tspan>
<tspan x="10" y="4858">│   │ │ │ │ └── extend-shallow@2.0.1 </tspan>
<tspan x="10" y="4874">│   │ │ │ └─┬ unique-stream@2.2.1 </tspan>
<tspan x="10" y="4890">│   │ │ │   └─┬ json-stable-stringify@1.0.1 </tspan>
<tspan x="10" y="4906">│   │ │ │     └── jsonify@0.0.0 </tspan>
<tspan x="10" y="4922">│   │ │ ├── graceful-fs@4.1.11 </tspan>
<tspan x="10" y="4938">│   │ │ ├─┬ gulp-sourcemaps@1.6.0 </tspan>
<tspan x="10" y="4954">│   │ │ │ └── convert-source-map@1.5.0 </tspan>
<tspan x="10" y="4970">│   │ │ ├── is-valid-glob@0.3.0 </tspan>
<tspan x="10" y="4986">│   │ │ ├─┬ lazystream@1.0.0 </tspan>
<tspan x="10" y="5002">│   │ │ │ └─┬ readable-stream@2.2.9 </tspan>
<tspan x="10" y="5018">│   │ │ │   ├── isarray@1.0.0 </tspan>
<tspan x="10" y="5034">│   │ │ │   └── string_decoder@1.0.0 </tspan>
<tspan x="10" y="5050">│   │ │ ├── lodash.isequal@4.5.0 </tspan>
<tspan x="10" y="5066">│   │ │ ├─┬ merge-stream@1.0.1 </tspan>
<tspan x="10" y="5082">│   │ │ │ └─┬ readable-stream@2.2.9 </tspan>
<tspan x="10" y="5098">│   │ │ │   ├── isarray@1.0.0 </tspan>
<tspan x="10" y="5114">│   │ │ │   └── string_decoder@1.0.0 </tspan>
<tspan x="10" y="5130">│   │ │ ├── object-assign@4.1.1 </tspan>
<tspan x="10" y="5146">│   │ │ ├─┬ readable-stream@2.2.9 </tspan>
<tspan x="10" y="5162">│   │ │ │ ├── isarray@1.0.0 </tspan>
<tspan x="10" y="5178">│   │ │ │ └── string_decoder@1.0.0 </tspan>
<tspan x="10" y="5194">│   │ │ ├─┬ strip-bom@2.0.0 </tspan>
<tspan x="10" y="5210">│   │ │ │ └── is-utf8@0.2.1 </tspan>
<tspan x="10" y="5226">│   │ │ ├─┬ strip-bom-stream@1.0.0 </tspan>
<tspan x="10" y="5242">│   │ │ │ └── first-chunk-stream@1.0.0 </tspan>
<tspan x="10" y="5258">│   │ │ ├── through2-filter@2.0.0 </tspan>
<tspan x="10" y="5274">│   │ │ └── vali-date@1.0.0 </tspan>
<tspan x="10" y="5290">│   │ └─┬ ware@1.3.0 </tspan>
<tspan x="10" y="5306">│   │   └─┬ wrap-fn@0.1.5 </tspan>
<tspan x="10" y="5322">│   │     └── co@3.1.0 </tspan>
<tspan x="10" y="5338">│   ├─┬ find-up@1.1.2 </tspan>
<tspan x="10" y="5354">│   │ └─┬ pinkie-promise@2.0.1 </tspan>
<tspan x="10" y="5370">│   │   └── pinkie@2.0.4 </tspan>
<tspan x="10" y="5386">│   ├─┬ github-username@2.1.0 </tspan>
<tspan x="10" y="5402">│   │ └─┬ gh-got@2.4.0 </tspan>
<tspan x="10" y="5418">│   │   └── object-assign@4.1.1 </tspan>
<tspan x="10" y="5434">│   ├─┬ glob@5.0.15 </tspan>
<tspan x="10" y="5450">│   │ ├─┬ inflight@1.0.6 </tspan>
<tspan x="10" y="5466">│   │ │ └── wrappy@1.0.2 </tspan>
<tspan x="10" y="5482">│   │ ├── inherits@2.0.3 </tspan>
<tspan x="10" y="5498">│   │ ├─┬ minimatch@3.0.3 </tspan>
<tspan x="10" y="5514">│   │ │ └─┬ brace-expansion@1.1.7 </tspan>
<tspan x="10" y="5530">│   │ │   ├── balanced-match@0.4.2 </tspan>
<tspan x="10" y="5546">│   │ │   └── concat-map@0.0.1 </tspan>
<tspan x="10" y="5562">│   │ └── once@1.4.0 </tspan>
<tspan x="10" y="5578">│   ├─┬ gruntfile-editor@1.2.1 </tspan>
<tspan x="10" y="5594">│   │ ├─┬ ast-query@2.0.0 </tspan>
<tspan x="10" y="5610">│   │ │ ├─┬ acorn-jsx@3.0.1 </tspan>
<tspan x="10" y="5626">│   │ │ │ └── acorn@3.3.0 </tspan>
<tspan x="10" y="5642">│   │ │ ├─┬ escodegen-wallaby@1.6.11 </tspan>
<tspan x="10" y="5658">│   │ │ │ ├── esprima@2.7.3 </tspan>
<tspan x="10" y="5674">│   │ │ │ ├── estraverse@1.9.3 </tspan>
<tspan x="10" y="5690">│   │ │ │ ├── esutils@2.0.2 </tspan>
<tspan x="10" y="5706">│   │ │ │ ├─┬ optionator@0.8.2 </tspan>
<tspan x="10" y="5722">│   │ │ │ │ ├── deep-is@0.1.3 </tspan>
<tspan x="10" y="5738">│   │ │ │ │ ├── fast-levenshtein@2.0.6 </tspan>
<tspan x="10" y="5754">│   │ │ │ │ ├── levn@0.3.0 </tspan>
<tspan x="10" y="5770">│   │ │ │ │ ├── prelude-ls@1.1.2 </tspan>
<tspan x="10" y="5786">│   │ │ │ │ ├── type-check@0.3.2 </tspan>
<tspan x="10" y="5802">│   │ │ │ │ └── wordwrap@1.0.0 </tspan>
<tspan x="10" y="5818">│   │ │ │ └─┬ source-map@0.2.0 </tspan>
<tspan x="10" y="5834">│   │ │ │   └── amdefine@1.0.1 </tspan>
<tspan x="10" y="5850">│   │ │ ├── lodash@4.17.4 </tspan>
<tspan x="10" y="5866">│   │ │ └── traverse@0.6.6 </tspan>
<tspan x="10" y="5882">│   │ └── lodash@4.17.4 </tspan>
<tspan x="10" y="5898">│   ├─┬ inquirer@0.11.4 </tspan>
<tspan x="10" y="5914">│   │ ├── ansi-escapes@1.4.0 </tspan>
<tspan x="10" y="5930">│   │ ├── ansi-regex@2.1.1 </tspan>
<tspan x="10" y="5946">│   │ ├─┬ cli-cursor@1.0.2 </tspan>
<tspan x="10" y="5962">│   │ │ └─┬ restore-cursor@1.0.1 </tspan>
<tspan x="10" y="5978">│   │ │   └── exit-hook@1.1.1 </tspan>
<tspan x="10" y="5994">│   │ ├── cli-width@1.1.1 </tspan>
<tspan x="10" y="6010">│   │ ├─┬ figures@1.7.0 </tspan>
<tspan x="10" y="6026">│   │ │ └── object-assign@4.1.1 </tspan>
<tspan x="10" y="6042">│   │ ├─┬ readline2@1.0.1 </tspan>
<tspan x="10" y="6058">│   │ │ ├── code-point-at@1.1.0 </tspan>
<tspan x="10" y="6074">│   │ │ ├── is-fullwidth-code-point@1.0.0 </tspan>
<tspan x="10" y="6090">│   │ │ └── mute-stream@0.0.5 </tspan>
<tspan x="10" y="6106">│   │ ├── run-async@0.1.0 </tspan>
<tspan x="10" y="6122">│   │ ├── rx-lite@3.1.2 </tspan>
<tspan x="10" y="6138">│   │ ├── string-width@1.0.2 </tspan>
<tspan x="10" y="6154">│   │ └── through@2.3.8 </tspan>
<tspan x="10" y="6170">│   ├─┬ istextorbinary@1.0.2 </tspan>
<tspan x="10" y="6186">│   │ ├── binaryextensions@1.0.1 </tspan>
<tspan x="10" y="6202">│   │ └── textextensions@1.0.2 </tspan>
<tspan x="10" y="6218">│   ├── lodash@3.10.1 </tspan>
<tspan x="10" y="6234">│   ├─┬ mem-fs-editor@2.3.0 </tspan>
<tspan x="10" y="6250">│   │ ├── commondir@1.0.1 </tspan>
<tspan x="10" y="6266">│   │ ├── deep-extend@0.4.1 </tspan>
<tspan x="10" y="6282">│   │ ├─┬ glob@7.1.1 </tspan>
<tspan x="10" y="6298">│   │ │ └── fs.realpath@1.0.0 </tspan>
<tspan x="10" y="6314">│   │ ├─┬ globby@4.1.0 </tspan>
<tspan x="10" y="6330">│   │ │ ├── array-union@1.0.2 </tspan>
<tspan x="10" y="6346">│   │ │ ├── arrify@1.0.1 </tspan>
<tspan x="10" y="6362">│   │ │ ├── glob@6.0.4 </tspan>
<tspan x="10" y="6378">│   │ │ ├── object-assign@4.1.1 </tspan>
<tspan x="10" y="6394">│   │ │ └── pify@2.3.0 </tspan>
<tspan x="10" y="6410">│   │ └─┬ multimatch@2.1.0 </tspan>
<tspan x="10" y="6426">│   │   └── array-differ@1.0.0 </tspan>
<tspan x="10" y="6442">│   ├─┬ nopt@3.0.6 </tspan>
<tspan x="10" y="6458">│   │ └── abbrev@1.1.0 </tspan>
<tspan x="10" y="6474">│   ├── path-exists@2.1.0 </tspan>
<tspan x="10" y="6490">│   ├── path-is-absolute@1.0.1 </tspan>
<tspan x="10" y="6506">│   ├── pretty-bytes@2.0.1 </tspan>
<tspan x="10" y="6522">│   ├── read-chunk@1.0.1 </tspan>
<tspan x="10" y="6538">│   ├─┬ read-pkg-up@1.0.1 </tspan>
<tspan x="10" y="6554">│   │ └─┬ read-pkg@1.1.0 </tspan>
<tspan x="10" y="6570">│   │   ├── load-json-file@1.1.0 </tspan>
<tspan x="10" y="6586">│   │   └── path-type@1.1.0 </tspan>
<tspan x="10" y="6602">│   ├─┬ rimraf@2.6.1 </tspan>
<tspan x="10" y="6618">│   │ └── glob@7.1.1 </tspan>
<tspan x="10" y="6634">│   ├── shelljs@0.5.3 </tspan>
<tspan x="10" y="6650">│   ├─┬ sinon@1.17.7 </tspan>
<tspan x="10" y="6666">│   │ ├── formatio@1.1.1 </tspan>
<tspan x="10" y="6682">│   │ ├── lolex@1.3.2 </tspan>
<tspan x="10" y="6698">│   │ ├── samsam@1.1.2 </tspan>
<tspan x="10" y="6714">│   │ └─┬ util@0.10.3 </tspan>
<tspan x="10" y="6730">│   │   └── inherits@2.0.1 </tspan>
<tspan x="10" y="6746">│   ├── text-table@0.2.0 </tspan>
<tspan x="10" y="6762">│   ├─┬ through2@2.0.3 </tspan>
<tspan x="10" y="6778">│   │ ├─┬ readable-stream@2.2.9 </tspan>
<tspan x="10" y="6794">│   │ │ ├── isarray@1.0.0 </tspan>
<tspan x="10" y="6810">│   │ │ └── string_decoder@1.0.0 </tspan>
<tspan x="10" y="6826">│   │ └── xtend@4.0.1 </tspan>
<tspan x="10" y="6842">│   ├─┬ underscore.string@3.3.4 </tspan>
<tspan x="10" y="6858">│   │ ├── sprintf-js@1.0.3 </tspan>
<tspan x="10" y="6874">│   │ └── util-deprecate@1.0.2 </tspan>
<tspan x="10" y="6890">│   ├─┬ user-home@2.0.0 </tspan>
<tspan x="10" y="6906">│   │ └── os-homedir@1.0.2 </tspan>
<tspan x="10" y="6922">│   ├── xdg-basedir@2.0.0 </tspan>
<tspan x="10" y="6938">│   ├── yeoman-assert@2.2.3 </tspan>
<tspan x="10" y="6954">│   ├─┬ yeoman-environment@1.5.3 </tspan>
<tspan x="10" y="6970">│   │ ├── diff@2.2.3 </tspan>
<tspan x="10" y="6986">│   │ ├─┬ grouped-queue@0.3.3 </tspan>
<tspan x="10" y="7002">│   │ │ └── lodash@4.17.4 </tspan>
<tspan x="10" y="7018">│   │ ├── log-symbols@1.0.2 </tspan>
<tspan x="10" y="7034">│   │ ├─┬ mem-fs@1.1.3 </tspan>
<tspan x="10" y="7050">│   │ │ └─┬ vinyl-file@2.0.0 </tspan>
<tspan x="10" y="7066">│   │ │   └─┬ strip-bom-stream@2.0.0 </tspan>
<tspan x="10" y="7082">│   │ │     └─┬ first-chunk-stream@2.0.0 </tspan>
<tspan x="10" y="7098">│   │ │       └─┬ readable-stream@2.2.9 </tspan>
<tspan x="10" y="7114">│   │ │         ├── isarray@1.0.0 </tspan>
<tspan x="10" y="7130">│   │ │         └── string_decoder@1.0.0 </tspan>
<tspan x="10" y="7146">│   │ └── untildify@2.1.0 </tspan>
<tspan x="10" y="7162">│   └── yeoman-welcome@1.0.1 </tspan>
<tspan x="10" y="7178">├── UNMET PEER DEPENDENCY generator-backbone-mocha@&gt;=0.0.2</tspan>
<tspan x="10" y="7194">└── UNMET PEER DEPENDENCY generator-mocha@&gt;=0.1.3</tspan>
</text>
</svg>
